<svg xmlns="http://www.w3.org/2000/svg" viewBox="0 0 600 600" width="600" height="600" role="img"><rect width="600" height="600" fill="#f6f4f2"/><g transform="translate(-190 -200) scale(1.62)"><ellipse cx="300" cy="506" rx="118" ry="13" fill="#1a1a1a" opacity="0.06"/><path d="M222 176 L378 176 L370 476 Q369 486 359 486 L318 486 Q308 486 307 476 L300 306 L293 476 Q292 486 282 486 L241 486 Q231 486 230 476 Z" fill="#3a3a3d"/><rect x="220" y="168" width="160" height="30" rx="6" fill="#2a2a2c"/><path d="M240 210 Q258 226 276 212" fill="none" stroke="#5b5b60" stroke-width="4" opacity="0.8"/><path d="M324 210 Q342 226 360 212" fill="none" stroke="#5b5b60" stroke-width="4" opacity="0.8"/><rect x="292" y="168" width="16" height="24" rx="4" fill="#5b5b60"/></g></svg>
