<svg xmlns="http://www.w3.org/2000/svg" viewBox="0 0 600 600" width="600" height="600" role="img"><rect width="600" height="600" fill="#f1f0ef"/><g><ellipse cx="300" cy="506" rx="118" ry="13" fill="#1a1a1a" opacity="0.06"/><path d="M258 246 L262 128 Q263 114 277 114 L323 114 Q337 114 338 128 L342 246 Z" fill="#9ea2a7"/><path d="M258 354 L262 472 Q263 486 277 486 L323 486 Q337 486 338 472 L342 354 Z" fill="#9ea2a7"/><rect x="238" y="232" width="124" height="136" rx="30" fill="#c3c6ca"/><rect x="252" y="246" width="96" height="108" rx="22" fill="#fbfaf9"/><path d="M300 268 L300 300 L326 314" fill="none" stroke="#3a3d42" stroke-width="6" stroke-linecap="round"/><circle cx="300" cy="300" r="5" fill="#3a3d42"/><rect x="360" y="284" width="14" height="26" rx="5" fill="#9ea2a7"/><rect x="272" y="150" width="56" height="3" fill="#c3c6ca" opacity="0.5"/><rect x="272" y="176" width="56" height="3" fill="#c3c6ca" opacity="0.5"/><rect x="272" y="202" width="56" height="3" fill="#c3c6ca" opacity="0.5"/></g></svg>
